<mxfile host="app.diagrams.net" modified="2021-09-03T03:07:00.417Z" agent="5.0 (Windows NT 10.0; Win64; x64) AppleWebKit/537.36 (KHTML, like Gecko) Chrome/92.0.4515.131 Safari/537.36" etag="-QVbRhvOnBLQBYfEIP7V" version="14.1.2" type="github">
  <diagram id="HTnoRy13JS2AFP6CThfI" name="Page-1">
    <mxGraphModel dx="1422" dy="882" grid="1" gridSize="10" guides="1" tooltips="1" connect="1" arrows="1" fold="1" page="1" pageScale="1" pageWidth="827" pageHeight="1169" math="0" shadow="0">
      <root>
        <mxCell id="0" />
        <mxCell id="1" parent="0" />
        <mxCell id="CtDJ0CZljW0Iu3LUGNHO-1" value="" style="rounded=0;whiteSpace=wrap;html=1;" vertex="1" parent="1">
          <mxGeometry x="130" y="110" width="520" height="610" as="geometry" />
        </mxCell>
        <mxCell id="CtDJ0CZljW0Iu3LUGNHO-7" style="edgeStyle=orthogonalEdgeStyle;rounded=0;orthogonalLoop=1;jettySize=auto;html=1;entryX=0.5;entryY=0;entryDx=0;entryDy=0;" edge="1" parent="1" source="CtDJ0CZljW0Iu3LUGNHO-2" target="CtDJ0CZljW0Iu3LUGNHO-1">
          <mxGeometry relative="1" as="geometry" />
        </mxCell>
        <mxCell id="CtDJ0CZljW0Iu3LUGNHO-2" value="客户端" style="rounded=0;whiteSpace=wrap;html=1;" vertex="1" parent="1">
          <mxGeometry x="325" y="10" width="130" height="40" as="geometry" />
        </mxCell>
        <mxCell id="CtDJ0CZljW0Iu3LUGNHO-3" value="node1&amp;nbsp; 机器" style="text;html=1;strokeColor=none;fillColor=none;align=center;verticalAlign=middle;whiteSpace=wrap;rounded=0;" vertex="1" parent="1">
          <mxGeometry x="340" y="110" width="90" height="20" as="geometry" />
        </mxCell>
        <mxCell id="CtDJ0CZljW0Iu3LUGNHO-4" value="" style="rounded=0;whiteSpace=wrap;html=1;fillColor=#ffe6cc;strokeColor=#d79b00;" vertex="1" parent="1">
          <mxGeometry x="180" y="160" width="410" height="180" as="geometry" />
        </mxCell>
        <mxCell id="CtDJ0CZljW0Iu3LUGNHO-6" value="es 进程" style="text;html=1;strokeColor=none;fillColor=none;align=center;verticalAlign=middle;whiteSpace=wrap;rounded=0;" vertex="1" parent="1">
          <mxGeometry x="350" y="170" width="80" height="20" as="geometry" />
        </mxCell>
        <mxCell id="CtDJ0CZljW0Iu3LUGNHO-12" style="edgeStyle=orthogonalEdgeStyle;rounded=0;orthogonalLoop=1;jettySize=auto;html=1;" edge="1" parent="1" source="CtDJ0CZljW0Iu3LUGNHO-8" target="CtDJ0CZljW0Iu3LUGNHO-10">
          <mxGeometry relative="1" as="geometry">
            <Array as="points">
              <mxPoint x="250" y="240" />
              <mxPoint x="250" y="240" />
            </Array>
          </mxGeometry>
        </mxCell>
        <mxCell id="CtDJ0CZljW0Iu3LUGNHO-21" style="edgeStyle=orthogonalEdgeStyle;rounded=0;orthogonalLoop=1;jettySize=auto;html=1;" edge="1" parent="1" source="CtDJ0CZljW0Iu3LUGNHO-8" target="CtDJ0CZljW0Iu3LUGNHO-13">
          <mxGeometry relative="1" as="geometry">
            <Array as="points">
              <mxPoint x="380" y="215" />
            </Array>
          </mxGeometry>
        </mxCell>
        <mxCell id="CtDJ0CZljW0Iu3LUGNHO-32" style="edgeStyle=orthogonalEdgeStyle;rounded=0;orthogonalLoop=1;jettySize=auto;html=1;entryX=0;entryY=0.5;entryDx=0;entryDy=0;" edge="1" parent="1" source="CtDJ0CZljW0Iu3LUGNHO-8" target="CtDJ0CZljW0Iu3LUGNHO-31">
          <mxGeometry relative="1" as="geometry">
            <Array as="points">
              <mxPoint x="100" y="215" />
              <mxPoint x="100" y="540" />
            </Array>
          </mxGeometry>
        </mxCell>
        <mxCell id="CtDJ0CZljW0Iu3LUGNHO-8" value="shard1" style="rounded=0;whiteSpace=wrap;html=1;fillColor=#dae8fc;strokeColor=#6c8ebf;" vertex="1" parent="1">
          <mxGeometry x="225" y="200" width="100" height="30" as="geometry" />
        </mxCell>
        <mxCell id="CtDJ0CZljW0Iu3LUGNHO-16" style="edgeStyle=orthogonalEdgeStyle;rounded=0;orthogonalLoop=1;jettySize=auto;html=1;" edge="1" parent="1" source="CtDJ0CZljW0Iu3LUGNHO-10" target="CtDJ0CZljW0Iu3LUGNHO-13">
          <mxGeometry relative="1" as="geometry">
            <Array as="points">
              <mxPoint x="250" y="360" />
              <mxPoint x="250" y="360" />
            </Array>
          </mxGeometry>
        </mxCell>
        <mxCell id="CtDJ0CZljW0Iu3LUGNHO-10" value="buffer" style="rounded=0;whiteSpace=wrap;html=1;fillColor=#f8cecc;strokeColor=#b85450;" vertex="1" parent="1">
          <mxGeometry x="200" y="270" width="100" height="30" as="geometry" />
        </mxCell>
        <mxCell id="CtDJ0CZljW0Iu3LUGNHO-19" style="edgeStyle=orthogonalEdgeStyle;rounded=0;orthogonalLoop=1;jettySize=auto;html=1;" edge="1" parent="1" source="CtDJ0CZljW0Iu3LUGNHO-13" target="CtDJ0CZljW0Iu3LUGNHO-18">
          <mxGeometry relative="1" as="geometry">
            <Array as="points">
              <mxPoint x="255" y="410" />
              <mxPoint x="255" y="410" />
            </Array>
          </mxGeometry>
        </mxCell>
        <mxCell id="CtDJ0CZljW0Iu3LUGNHO-25" style="edgeStyle=orthogonalEdgeStyle;rounded=0;orthogonalLoop=1;jettySize=auto;html=1;" edge="1" parent="1" source="CtDJ0CZljW0Iu3LUGNHO-13" target="CtDJ0CZljW0Iu3LUGNHO-23">
          <mxGeometry relative="1" as="geometry">
            <Array as="points">
              <mxPoint x="590" y="380" />
              <mxPoint x="590" y="420" />
              <mxPoint x="545" y="420" />
            </Array>
          </mxGeometry>
        </mxCell>
        <mxCell id="CtDJ0CZljW0Iu3LUGNHO-13" value="os cache" style="rounded=0;whiteSpace=wrap;html=1;fillColor=#e1d5e7;strokeColor=#9673a6;" vertex="1" parent="1">
          <mxGeometry x="190" y="360" width="380" height="40" as="geometry" />
        </mxCell>
        <mxCell id="CtDJ0CZljW0Iu3LUGNHO-17" value="每隔1s将buffer的数据刷入到欧式cache" style="text;html=1;strokeColor=none;fillColor=none;align=center;verticalAlign=middle;whiteSpace=wrap;rounded=0;" vertex="1" parent="1">
          <mxGeometry x="140" y="315" width="110" height="20" as="geometry" />
        </mxCell>
        <mxCell id="CtDJ0CZljW0Iu3LUGNHO-18" value="&lt;span style=&quot;color: rgb(106 , 115 , 125) ; font-family: , &amp;#34;blinkmacsystemfont&amp;#34; , , &amp;#34;pingfang sc&amp;#34; , &amp;#34;helvetica&amp;#34; , &amp;#34;arial&amp;#34; , &amp;#34;hiragino sans gb&amp;#34; , &amp;#34;microsoft yahei&amp;#34; , &amp;#34;simsun&amp;#34; , , &amp;#34;heiti&amp;#34; , , sans-serif ; font-size: 14px&quot;&gt;segment file（磁盘）&lt;/span&gt;" style="rounded=0;whiteSpace=wrap;html=1;fillColor=#d5e8d4;strokeColor=#82b366;" vertex="1" parent="1">
          <mxGeometry x="200" y="440" width="110" height="40" as="geometry" />
        </mxCell>
        <mxCell id="CtDJ0CZljW0Iu3LUGNHO-22" value="translog数据写入到oscache" style="text;html=1;strokeColor=none;fillColor=none;align=center;verticalAlign=middle;whiteSpace=wrap;rounded=0;" vertex="1" parent="1">
          <mxGeometry x="340" y="220" width="146" height="20" as="geometry" />
        </mxCell>
        <mxCell id="CtDJ0CZljW0Iu3LUGNHO-23" value="&lt;span style=&quot;color: rgb(106 , 115 , 125) ; font-family: , &amp;#34;blinkmacsystemfont&amp;#34; , , &amp;#34;pingfang sc&amp;#34; , &amp;#34;helvetica&amp;#34; , &amp;#34;arial&amp;#34; , &amp;#34;hiragino sans gb&amp;#34; , &amp;#34;microsoft yahei&amp;#34; , &amp;#34;simsun&amp;#34; , , &amp;#34;heiti&amp;#34; , , sans-serif ; font-size: 14px&quot;&gt;translog(磁盘)&lt;/span&gt;" style="rounded=0;whiteSpace=wrap;html=1;fillColor=#d5e8d4;strokeColor=#82b366;" vertex="1" parent="1">
          <mxGeometry x="490" y="440" width="110" height="40" as="geometry" />
        </mxCell>
        <mxCell id="CtDJ0CZljW0Iu3LUGNHO-24" value="&lt;span style=&quot;color: rgb(106 , 115 , 125) ; font-family: , &amp;#34;blinkmacsystemfont&amp;#34; , , &amp;#34;pingfang sc&amp;#34; , &amp;#34;helvetica&amp;#34; , &amp;#34;arial&amp;#34; , &amp;#34;hiragino sans gb&amp;#34; , &amp;#34;microsoft yahei&amp;#34; , &amp;#34;simsun&amp;#34; , , &amp;#34;heiti&amp;#34; , , sans-serif ; font-size: 14px&quot;&gt;commit point(磁盘)&lt;/span&gt;" style="rounded=0;whiteSpace=wrap;html=1;fillColor=#d5e8d4;strokeColor=#82b366;" vertex="1" parent="1">
          <mxGeometry x="350" y="440" width="110" height="40" as="geometry" />
        </mxCell>
        <mxCell id="CtDJ0CZljW0Iu3LUGNHO-26" value="每隔5s刷一次数据到磁盘" style="text;html=1;strokeColor=none;fillColor=none;align=center;verticalAlign=middle;whiteSpace=wrap;rounded=0;" vertex="1" parent="1">
          <mxGeometry x="580" y="390" width="140" height="20" as="geometry" />
        </mxCell>
        <mxCell id="CtDJ0CZljW0Iu3LUGNHO-28" style="edgeStyle=orthogonalEdgeStyle;rounded=0;orthogonalLoop=1;jettySize=auto;html=1;" edge="1" parent="1" source="CtDJ0CZljW0Iu3LUGNHO-8" target="CtDJ0CZljW0Iu3LUGNHO-24">
          <mxGeometry relative="1" as="geometry">
            <Array as="points">
              <mxPoint x="320" y="460" />
            </Array>
          </mxGeometry>
        </mxCell>
        <mxCell id="CtDJ0CZljW0Iu3LUGNHO-29" value="每隔30分钟进行一次commit， commit之后就清空 trnaslog数据" style="text;html=1;strokeColor=none;fillColor=none;align=center;verticalAlign=middle;whiteSpace=wrap;rounded=0;" vertex="1" parent="1">
          <mxGeometry x="310" y="300" width="210" height="20" as="geometry" />
        </mxCell>
        <mxCell id="CtDJ0CZljW0Iu3LUGNHO-30" value="translog会不断变大，大到一定程度也会触发commit" style="text;html=1;strokeColor=none;fillColor=none;align=center;verticalAlign=middle;whiteSpace=wrap;rounded=0;" vertex="1" parent="1">
          <mxGeometry x="310" y="270" width="270" height="20" as="geometry" />
        </mxCell>
        <mxCell id="CtDJ0CZljW0Iu3LUGNHO-31" value=".del文件(磁盘)" style="rounded=0;whiteSpace=wrap;html=1;fillColor=#d5e8d4;strokeColor=#82b366;" vertex="1" parent="1">
          <mxGeometry x="308" y="520" width="106" height="40" as="geometry" />
        </mxCell>
        <mxCell id="CtDJ0CZljW0Iu3LUGNHO-33" value="删除数据写入 .del文件标记这个数据被删除" style="text;html=1;strokeColor=none;fillColor=none;align=center;verticalAlign=middle;whiteSpace=wrap;rounded=0;" vertex="1" parent="1">
          <mxGeometry x="150" y="510" width="130" height="20" as="geometry" />
        </mxCell>
        <mxCell id="CtDJ0CZljW0Iu3LUGNHO-40" style="edgeStyle=orthogonalEdgeStyle;rounded=0;orthogonalLoop=1;jettySize=auto;html=1;entryX=0;entryY=0.75;entryDx=0;entryDy=0;" edge="1" parent="1" source="CtDJ0CZljW0Iu3LUGNHO-35" target="CtDJ0CZljW0Iu3LUGNHO-38">
          <mxGeometry relative="1" as="geometry" />
        </mxCell>
        <mxCell id="CtDJ0CZljW0Iu3LUGNHO-35" value="&lt;span style=&quot;color: rgb(106 , 115 , 125) ; font-family: , &amp;#34;blinkmacsystemfont&amp;#34; , , &amp;#34;pingfang sc&amp;#34; , &amp;#34;helvetica&amp;#34; , &amp;#34;arial&amp;#34; , &amp;#34;hiragino sans gb&amp;#34; , &amp;#34;microsoft yahei&amp;#34; , &amp;#34;simsun&amp;#34; , , &amp;#34;heiti&amp;#34; , , sans-serif ; font-size: 14px&quot;&gt;segment file（磁盘）删除&lt;/span&gt;" style="rounded=0;whiteSpace=wrap;html=1;fillColor=#d5e8d4;strokeColor=#82b366;" vertex="1" parent="1">
          <mxGeometry x="180" y="585" width="110" height="40" as="geometry" />
        </mxCell>
        <mxCell id="CtDJ0CZljW0Iu3LUGNHO-41" style="edgeStyle=orthogonalEdgeStyle;rounded=0;orthogonalLoop=1;jettySize=auto;html=1;" edge="1" parent="1" source="CtDJ0CZljW0Iu3LUGNHO-36" target="CtDJ0CZljW0Iu3LUGNHO-38">
          <mxGeometry relative="1" as="geometry" />
        </mxCell>
        <mxCell id="CtDJ0CZljW0Iu3LUGNHO-36" value="&lt;span style=&quot;color: rgb(106 , 115 , 125) ; font-family: , &amp;#34;blinkmacsystemfont&amp;#34; , , &amp;#34;pingfang sc&amp;#34; , &amp;#34;helvetica&amp;#34; , &amp;#34;arial&amp;#34; , &amp;#34;hiragino sans gb&amp;#34; , &amp;#34;microsoft yahei&amp;#34; , &amp;#34;simsun&amp;#34; , , &amp;#34;heiti&amp;#34; , , sans-serif ; font-size: 14px&quot;&gt;segment file（磁盘）删除&lt;/span&gt;" style="rounded=0;whiteSpace=wrap;html=1;fillColor=#d5e8d4;strokeColor=#82b366;" vertex="1" parent="1">
          <mxGeometry x="330" y="585" width="110" height="40" as="geometry" />
        </mxCell>
        <mxCell id="CtDJ0CZljW0Iu3LUGNHO-42" style="edgeStyle=orthogonalEdgeStyle;rounded=0;orthogonalLoop=1;jettySize=auto;html=1;entryX=1;entryY=0.5;entryDx=0;entryDy=0;" edge="1" parent="1" source="CtDJ0CZljW0Iu3LUGNHO-37" target="CtDJ0CZljW0Iu3LUGNHO-38">
          <mxGeometry relative="1" as="geometry" />
        </mxCell>
        <mxCell id="CtDJ0CZljW0Iu3LUGNHO-37" value="&lt;span style=&quot;color: rgb(106 , 115 , 125) ; font-family: , &amp;#34;blinkmacsystemfont&amp;#34; , , &amp;#34;pingfang sc&amp;#34; , &amp;#34;helvetica&amp;#34; , &amp;#34;arial&amp;#34; , &amp;#34;hiragino sans gb&amp;#34; , &amp;#34;microsoft yahei&amp;#34; , &amp;#34;simsun&amp;#34; , , &amp;#34;heiti&amp;#34; , , sans-serif ; font-size: 14px&quot;&gt;segment file（磁盘）删除&lt;/span&gt;" style="rounded=0;whiteSpace=wrap;html=1;fillColor=#d5e8d4;strokeColor=#82b366;" vertex="1" parent="1">
          <mxGeometry x="490" y="585" width="110" height="40" as="geometry" />
        </mxCell>
        <mxCell id="CtDJ0CZljW0Iu3LUGNHO-38" value="&lt;span style=&quot;color: rgb(106 , 115 , 125) ; font-family: , &amp;#34;blinkmacsystemfont&amp;#34; , , &amp;#34;pingfang sc&amp;#34; , &amp;#34;helvetica&amp;#34; , &amp;#34;arial&amp;#34; , &amp;#34;hiragino sans gb&amp;#34; , &amp;#34;microsoft yahei&amp;#34; , &amp;#34;simsun&amp;#34; , , &amp;#34;heiti&amp;#34; , , sans-serif ; font-size: 14px&quot;&gt;新的segment file（磁盘）&lt;/span&gt;" style="rounded=0;whiteSpace=wrap;html=1;fillColor=#d5e8d4;strokeColor=#82b366;" vertex="1" parent="1">
          <mxGeometry x="290" y="660" width="110" height="40" as="geometry" />
        </mxCell>
        <mxCell id="CtDJ0CZljW0Iu3LUGNHO-43" value="多个segment文件mearge成一个文件， 并删除旧的segment文件" style="text;html=1;strokeColor=none;fillColor=none;align=center;verticalAlign=middle;whiteSpace=wrap;rounded=0;" vertex="1" parent="1">
          <mxGeometry x="460" y="640" width="176" height="50" as="geometry" />
        </mxCell>
      </root>
    </mxGraphModel>
  </diagram>
</mxfile>
